<?xml version="1.0" encoding="utf-8"?>
<!-- Generator: Adobe Illustrator 16.0.0, SVG Export Plug-In . SVG Version: 6.00 Build 0)  -->
<!DOCTYPE svg PUBLIC "-//W3C//DTD SVG 1.1//EN" "http://www.w3.org/Graphics/SVG/1.1/DTD/svg11.dtd">
<svg version="1.1" id="Livello_1" xmlns="http://www.w3.org/2000/svg" xmlns:xlink="http://www.w3.org/1999/xlink" x="0px" y="0px"
	 width="58px" height="57px" viewBox="0 0 587.571 579.273" enable-background="new 0 0 587.571 579.273"
	 xml:space="preserve">
<g>
	<path fill="#EB212E" d="M59.189,126.475c0,4.475,0.747,8.45,1.988,11.681c3.978,10.687,15.904,12.924,26.094,12.924
		c8.946,0,22.613-2.985,22.613-16.155c0-9.197-7.702-11.68-38.268-20.38c-28.082-7.953-60.142-15.655-60.142-51.439
		c0-41.008,35.041-58.654,71.572-58.654c38.522,0,72.565,14.662,74.062,57.907h-51.695c0.994-6.708-1.987-11.183-6.462-14.168
		c-4.475-3.227-10.687-4.471-16.156-4.471c-7.451,0-19.628,1.987-19.628,11.931c0.993,12.673,26.341,15.408,51.438,22.363
		c25.102,6.959,49.954,18.639,49.954,51.196c0,46.22-42.499,61.137-82.01,61.137c-20.129,0-77.538-7.211-78.034-63.872H59.189z"/>
	<path fill="#EB212E" d="M181.462,8.679h91.457c48.214,0,65.112,35.291,65.112,60.639c0,42.991-28.826,63.121-69.587,63.121h-32.307
		v53.68h-54.675V8.679z M236.138,90.192h21.124c14.168,0,29.075-0.993,29.075-18.887c0-16.155-12.423-17.149-25.845-17.149h-24.354
		V90.192z"/>
	<polygon fill="#EB212E" points="181.661,203.024 219.436,203.024 149.851,388.915 112.075,388.915 	"/>
	<path fill="#FFFFFF" d="M353.668,269.142c-0.993-6.462-5.966-26.097-28.58-26.097c-25.601,0-33.801,24.857-33.801,48.714
		c0,23.857,8.201,48.705,33.801,48.705c18.389,0,25.595-12.921,28.825-29.575h53.68c0,35.792-29.073,73.812-81.015,73.812
		c-57.408,0-89.963-40.507-89.963-92.941c0-55.919,35.29-92.951,89.963-92.951c48.708,0.25,75.546,25.848,80.273,70.334H353.668z"/>
	<polygon fill="#FFFFFF" points="424.5,337.734 507.008,248.516 429.222,248.516 429.222,203.037 579.078,203.037 579.078,242.798 495.823,334.999 
		583.055,334.999 583.055,380.478 424.5,380.478 	"/>
	<path fill="#FFFFFF" d="M324.964,397.385h89.716c59.148,0,80.024,43.736,80.024,88.47c0,54.425-28.829,88.967-90.714,88.967h-79.026V397.385z
		 M379.637,529.347h21.373c34.05,0,39.017-27.588,39.017-44.241c0-11.178-3.477-42.246-42.99-42.246h-17.399V529.347z"/>
</g>
</svg>
